<?xml version="1.0" encoding="UTF-8" standalone="no"?>
<svg
   viewBox="0 0 32 32"
   version="1.1"
   id="svg4"
   sodipodi:docname="charset.svg"
   inkscape:version="1.2 (dc2aedaf03, 2022-05-15)"
   xmlns:inkscape="http://www.inkscape.org/namespaces/inkscape"
   xmlns:sodipodi="http://sodipodi.sourceforge.net/DTD/sodipodi-0.dtd"
   xmlns="http://www.w3.org/2000/svg"
   xmlns:svg="http://www.w3.org/2000/svg">
  <defs
     id="defs8" />
  <sodipodi:namedview
     id="namedview6"
     pagecolor="#ffffff"
     bordercolor="#000000"
     borderopacity="0.25"
     inkscape:showpageshadow="2"
     inkscape:pageopacity="0.0"
     inkscape:pagecheckerboard="0"
     inkscape:deskcolor="#d1d1d1"
     showgrid="false"
     inkscape:zoom="26.15625"
     inkscape:cx="16.019116"
     inkscape:cy="16.019116"
     inkscape:window-width="1920"
     inkscape:window-height="1015"
     inkscape:window-x="-8"
     inkscape:window-y="-8"
     inkscape:window-maximized="1"
     inkscape:current-layer="svg4" />
  <path
     d="m10 2v2h-8v4h12.8c-.6 1.6-1.4 3.3-2.8 5-.7-.9-1.3-1.9-1.8-3h-4.2c.7 2.3 1.8 4.2 3.3 6l-5.3 5 3 3 5-5 4 4 1.4-4.3-2.7-2.7c2.2-2.6 3.5-5.2 4.3-8h3v-4h-8v-2zm11 10-5 18h4l.7-2.4h4.6l.7 2.4h4l-5-18zm2 7 1.2 4.6h-2.4z"
     id="path2"
     style="fill:#ffffff" />
</svg>
