<?xml version="1.0" encoding="UTF-8" standalone="no"?>
<svg
   viewBox="0 0 32 32"
   version="1.1"
   id="svg6"
   sodipodi:docname="col-minus.svg"
   inkscape:version="1.2 (dc2aedaf03, 2022-05-15)"
   xmlns:inkscape="http://www.inkscape.org/namespaces/inkscape"
   xmlns:sodipodi="http://sodipodi.sourceforge.net/DTD/sodipodi-0.dtd"
   xmlns="http://www.w3.org/2000/svg"
   xmlns:svg="http://www.w3.org/2000/svg">
  <defs
     id="defs10" />
  <sodipodi:namedview
     id="namedview8"
     pagecolor="#ffffff"
     bordercolor="#000000"
     borderopacity="0.25"
     inkscape:showpageshadow="2"
     inkscape:pageopacity="0.0"
     inkscape:pagecheckerboard="0"
     inkscape:deskcolor="#d1d1d1"
     showgrid="false"
     inkscape:zoom="26.15625"
     inkscape:cx="16.019116"
     inkscape:cy="16.019116"
     inkscape:window-width="1920"
     inkscape:window-height="1015"
     inkscape:window-x="-8"
     inkscape:window-y="-8"
     inkscape:window-maximized="1"
     inkscape:current-layer="svg6" />
  <path
     d="m14 2v28h3.5c-1-1.5-1.5-3.2-1.5-5 0-2.1.7-4 2-5.6v-17.4zm-10 4v20h8v-20zm16 0v11.5c.6-.4 1.3-.8 2-1v-2.5h4v2.1c.7.1 1.4.2 2 .4v-10.5zm-14 2h4v4h-4zm16 0h4v4h-4zm-16 6h4v4h-4zm0 6h4v4h-4z"
     id="path2"
     style="fill:#ffffff" />
  <path
     d="m25 18c-3.9 0-7 3.1-7 7s3.1 7 7 7 7-3.1 7-7-3.1-7-7-7zm5 6v2h-10v-2z"
     id="path4"
     style="fill:#ffffff" />
</svg>
