<?xml version="1.0" encoding="UTF-8" standalone="no"?>
<svg
   viewBox="0 0 32 32"
   version="1.1"
   id="svg4"
   sodipodi:docname="collapse-all.svg"
   inkscape:version="1.2 (dc2aedaf03, 2022-05-15)"
   xmlns:inkscape="http://www.inkscape.org/namespaces/inkscape"
   xmlns:sodipodi="http://sodipodi.sourceforge.net/DTD/sodipodi-0.dtd"
   xmlns="http://www.w3.org/2000/svg"
   xmlns:svg="http://www.w3.org/2000/svg">
  <defs
     id="defs8" />
  <sodipodi:namedview
     id="namedview6"
     pagecolor="#ffffff"
     bordercolor="#000000"
     borderopacity="0.25"
     inkscape:showpageshadow="2"
     inkscape:pageopacity="0.0"
     inkscape:pagecheckerboard="0"
     inkscape:deskcolor="#d1d1d1"
     showgrid="false"
     inkscape:zoom="26.15625"
     inkscape:cx="16.019116"
     inkscape:cy="16.019116"
     inkscape:window-width="1920"
     inkscape:window-height="1015"
     inkscape:window-x="-8"
     inkscape:window-y="-8"
     inkscape:window-maximized="1"
     inkscape:current-layer="svg4" />
  <path
     fill="#0dcaf0"
     d="M 1 16 C 1 15.4 1.5 15 2.1 15 h 27.9 C 30.5 15 31 15.4 31 16 C 31 16.6 30.5 17 29.9 17 h -27.9 C 1.5 17 1 16.6 1 16 z m 15 -16 C 16.6 0 17.1 0.4 17.1 1 v 7.6 l 2.5 -2.3 C 19.9 5.9 20.6 5.9 21 6.3 C 21.5 6.7 21.5 7.3 21 7.7 l -4.3 4 C 16.6 11.9 16.3 12 16 12 C 15.7 12 15.4 11.9 15.2 11.7 l -4.3 -4 C 10.5 7.3 10.5 6.7 11 6.3 C 11.4 5.9 12.1 5.9 12.5 6.3 L 14.9 8.6 V 1 C 14.9 0.4 15.4 0 16 0 z m -1.1 23.4 l -2.5 2.3 C 12.1 26.1 11.4 26.1 11 25.7 C 10.5 25.3 10.5 24.7 11 24.3 l 4.3 -4 C 15.4 20.1 15.7 20 16 20 C 16.3 20 16.6 20.1 16.8 20.3 l 4.3 4 C 21.5 24.7 21.5 25.3 21 25.7 C 20.6 26.1 19.9 26.1 19.5 25.7 L 17.1 23.4 V 31 C 17.1 31.6 16.6 32 16 32 C 15.4 32 14.9 31.6 14.9 31 v -7.6 z"
     id="path2"
     style="fill:#ffffff" />
</svg>
