<?xml version="1.0" encoding="UTF-8" standalone="no"?>
<svg
   viewBox="0 0 32 32"
   version="1.1"
   id="svg4"
   sodipodi:docname="databases.svg"
   inkscape:version="1.2 (dc2aedaf03, 2022-05-15)"
   xmlns:inkscape="http://www.inkscape.org/namespaces/inkscape"
   xmlns:sodipodi="http://sodipodi.sourceforge.net/DTD/sodipodi-0.dtd"
   xmlns="http://www.w3.org/2000/svg"
   xmlns:svg="http://www.w3.org/2000/svg">
  <defs
     id="defs8" />
  <sodipodi:namedview
     id="namedview6"
     pagecolor="#ffffff"
     bordercolor="#000000"
     borderopacity="0.25"
     inkscape:showpageshadow="2"
     inkscape:pageopacity="0.0"
     inkscape:pagecheckerboard="0"
     inkscape:deskcolor="#d1d1d1"
     showgrid="false"
     inkscape:zoom="26.15625"
     inkscape:cx="16.019116"
     inkscape:cy="16.019116"
     inkscape:window-width="1920"
     inkscape:window-height="1015"
     inkscape:window-x="-8"
     inkscape:window-y="-8"
     inkscape:window-maximized="1"
     inkscape:current-layer="svg4" />
  <path
     d="m11 2c3.2 0 6.2.7 7.8 2-1.3.1-2.5.3-3.6.6-1.2-.4-2.7-.6-4.2-.6-3.9 0-7 1.3-7 3 0 1.5 2.6 2.8 6 3v4c-4.5-.2-8-1.9-8-4v-4c0-2.2 4-4 9-4zm10 4c5 0 9 1.8 9 4v4c0 2.2-4 4-9 4s-9-1.8-9-4v-4c0-2.2 4-4 9-4zm0 2c-3.9 0-7 1.3-7 3s3.1 3 7 3 7-1.3 7-3-3.1-3-7-3zm-19 4c0 2 3.4 3.8 8 4v4c-4.5-.2-8-1.9-8-4zm28 4v4c0 2.2-4 4-9 4s-9-1.8-9-4v-4c0 2.2 4 4 9 4s9-1.8 9-4zm-28 2c0 2 3.4 3.8 8 4v4c-4.5-.2-8-1.9-8-4zm28 4v4c0 2.2-4 4-9 4s-9-1.8-9-4v-4c0 2.2 4 4 9 4s9-1.8 9-4z"
     id="path2"
     style="fill:#ffffff" />
</svg>
