<?xml version="1.0" encoding="UTF-8" standalone="no"?>
<svg
   viewBox="0 0 32 32"
   version="1.1"
   id="svg6"
   sodipodi:docname="database-engine.svg"
   inkscape:version="1.2 (dc2aedaf03, 2022-05-15)"
   xmlns:inkscape="http://www.inkscape.org/namespaces/inkscape"
   xmlns:sodipodi="http://sodipodi.sourceforge.net/DTD/sodipodi-0.dtd"
   xmlns="http://www.w3.org/2000/svg"
   xmlns:svg="http://www.w3.org/2000/svg">
  <defs
     id="defs10" />
  <sodipodi:namedview
     id="namedview8"
     pagecolor="#ffffff"
     bordercolor="#000000"
     borderopacity="0.25"
     inkscape:showpageshadow="2"
     inkscape:pageopacity="0.0"
     inkscape:pagecheckerboard="0"
     inkscape:deskcolor="#d1d1d1"
     showgrid="false"
     inkscape:zoom="26.15625"
     inkscape:cx="16.019116"
     inkscape:cy="16.019116"
     inkscape:window-width="1920"
     inkscape:window-height="1015"
     inkscape:window-x="-8"
     inkscape:window-y="-8"
     inkscape:window-maximized="1"
     inkscape:current-layer="svg6" />
  <path
     d="m16 2c-6.6 0-12 2.2-12 5v4c0 2.8 5.4 5 12 5 .7 0 1.4 0 2.1-.1 1.7-1.2 3.8-1.9 5.9-1.9.5 0 .9 0 1.4.1 1.6-.9 2.6-1.9 2.6-3.1v-4c0-2.8-5.4-5-12-5zm0 2c5 0 9 1.6 9 3.5s-4 3.5-9 3.5-9-1.6-9-3.5 4-3.5 9-3.5zm-12 9v5c0 2.5 4.4 4.5 10.1 4.9.2-1.8.8-3.5 1.9-4.9-6.6 0-12-2.2-12-5zm24 0c0 .5-.3 1.1-.7 1.6.2.1.5.1.7.2zm-24 7v5c0 2.8 5.4 5 12 5-1.1-1.5-1.7-3.3-1.9-5.1-5.7-.4-10.1-2.4-10.1-4.9z"
     id="path2"
     style="fill:#ffffff" />
  <path
     d="m23 16-.4 2.2-1.7.7-1.9-1.3-1.4 1.4 1.3 1.9-.7 1.7-2.2.4v2l2.2.4.7 1.7-1.3 1.9 1.4 1.4 1.9-1.3 1.7.7.4 2.2h2l.4-2.2 1.7-.7 1.9 1.3 1.4-1.4-1.3-1.9.7-1.7 2.2-.4v-2l-2.2-.4-.7-1.7 1.3-1.9-1.4-1.4-1.9 1.3-1.7-.7-.4-2.2zm1 5c1.7 0 3 1.3 3 3s-1.3 3-3 3-3-1.3-3-3 1.3-3 3-3z"
     id="path4"
     style="fill:#ffffff" />
</svg>
