<?xml version="1.0" encoding="UTF-8" standalone="no"?>
<svg
   viewBox="0 0 32 32"
   version="1.1"
   id="svg1524"
   sodipodi:docname="gear.svg"
   inkscape:version="1.2 (dc2aedaf03, 2022-05-15)"
   xmlns:inkscape="http://www.inkscape.org/namespaces/inkscape"
   xmlns:sodipodi="http://sodipodi.sourceforge.net/DTD/sodipodi-0.dtd"
   xmlns="http://www.w3.org/2000/svg"
   xmlns:svg="http://www.w3.org/2000/svg">
  <defs
     id="defs1528" />
  <sodipodi:namedview
     id="namedview1526"
     pagecolor="#ffffff"
     bordercolor="#000000"
     borderopacity="0.25"
     inkscape:showpageshadow="2"
     inkscape:pageopacity="0.0"
     inkscape:pagecheckerboard="0"
     inkscape:deskcolor="#d1d1d1"
     showgrid="false"
     inkscape:zoom="26.15625"
     inkscape:cx="16.019116"
     inkscape:cy="16.019116"
     inkscape:window-width="1920"
     inkscape:window-height="1015"
     inkscape:window-x="-8"
     inkscape:window-y="-8"
     inkscape:window-maximized="1"
     inkscape:current-layer="svg1524" />
  <path
     d="m14 2-.6 4c-.9.2-1.8.6-2.6 1.1l-3.3-2.4-2.8 2.8 2.4 3.3c-.5.8-.9 1.7-1.1 2.6l-4 .6v4l4 .6c.2.9.6 1.8 1.1 2.6l-2.4 3.3 2.8 2.8 3.3-2.4c.8.5 1.7.9 2.6 1.1l.6 4h4l.6-4c.9-.2 1.8-.6 2.6-1.1l3.3 2.4 2.8-2.8-2.4-3.3c.5-.8.9-1.7 1.1-2.6l4-.6v-4l-4-.6c-.2-.9-.6-1.8-1.1-2.6l2.4-3.3-2.8-2.8-3.3 2.4c-.8-.5-1.7-.9-2.6-1.1l-.6-4zm2 8c3.3 0 6 2.7 6 6s-2.7 6-6 6-6-2.7-6-6 2.7-6 6-6z"
     id="path1522"
     style="fill:#ffffff" />
</svg>
