<?xml version="1.0" encoding="UTF-8" standalone="no"?>
<svg
   viewBox="0 0 32 32"
   version="1.1"
   id="svg1774"
   sodipodi:docname="globe-alt.svg"
   inkscape:version="1.2 (dc2aedaf03, 2022-05-15)"
   xmlns:inkscape="http://www.inkscape.org/namespaces/inkscape"
   xmlns:sodipodi="http://sodipodi.sourceforge.net/DTD/sodipodi-0.dtd"
   xmlns="http://www.w3.org/2000/svg"
   xmlns:svg="http://www.w3.org/2000/svg">
  <defs
     id="defs1778" />
  <sodipodi:namedview
     id="namedview1776"
     pagecolor="#ffffff"
     bordercolor="#000000"
     borderopacity="0.25"
     inkscape:showpageshadow="2"
     inkscape:pageopacity="0.0"
     inkscape:pagecheckerboard="0"
     inkscape:deskcolor="#d1d1d1"
     showgrid="false"
     inkscape:zoom="26.15625"
     inkscape:cx="16.019116"
     inkscape:cy="16.019116"
     inkscape:window-width="1920"
     inkscape:window-height="1015"
     inkscape:window-x="-8"
     inkscape:window-y="-8"
     inkscape:window-maximized="1"
     inkscape:current-layer="svg1774" />
  <path
     d="m16 2c-7.7 0-14 6.3-14 14s6.3 14 14 14 14-6.3 14-14-6.3-14-14-14zm0 3 .8 1.9 2-1.5c.3.1.7.2 1 .3l-1.2.9-.8 3.1.7.7-.7 1.8 2.1 2.2 2.5-1.1 1.2 3 1.4 1 2-1.2c-.1 6-5 10.9-11 10.9-6.1 0-11-4.9-11-11 0-.2.1-.5.1-.7l3 1.9 4.2.2.5 1.7 1.3.6 1.8 5 1.1.4-.1-3.7 1.2-2.6-.5-2.1-4.3-.6-1.1.4-2.2-.4 1.2-1.3 1.4-4.1-2.2-1.6-2.8-.1c2.1-2.5 5.1-4 8.4-4z"
     id="path1772"
     style="fill:#ffffff" />
</svg>
