<?xml version="1.0" encoding="UTF-8" standalone="no"?>
<svg
   viewBox="0 0 32 32"
   version="1.1"
   id="svg1516"
   sodipodi:docname="language.svg"
   inkscape:version="1.2 (dc2aedaf03, 2022-05-15)"
   xmlns:inkscape="http://www.inkscape.org/namespaces/inkscape"
   xmlns:sodipodi="http://sodipodi.sourceforge.net/DTD/sodipodi-0.dtd"
   xmlns="http://www.w3.org/2000/svg"
   xmlns:svg="http://www.w3.org/2000/svg">
  <defs
     id="defs1520" />
  <sodipodi:namedview
     id="namedview1518"
     pagecolor="#ffffff"
     bordercolor="#000000"
     borderopacity="0.25"
     inkscape:showpageshadow="2"
     inkscape:pageopacity="0.0"
     inkscape:pagecheckerboard="0"
     inkscape:deskcolor="#d1d1d1"
     showgrid="false"
     inkscape:zoom="26.15625"
     inkscape:cx="16.019116"
     inkscape:cy="16.019116"
     inkscape:window-width="1920"
     inkscape:window-height="1015"
     inkscape:window-x="-8"
     inkscape:window-y="-8"
     inkscape:window-maximized="1"
     inkscape:current-layer="svg1516" />
  <path
     d="m4 2c-1 0-2 1-2 2v8c0 1 1 2 2 2h2v8l8-8h6c1 0 2-1 2-2v-8c0-1-1-2-2-2zm0 2h16v8h-8v1l-4 4v-5h-4zm20 6v4c0 1-1 2-2 2h-6l-5.4 5.4c.4.4.9.6 1.4.6h6l8 8v-8h2c1 0 2-1 2-2v-8c0-1-1-2-2-2z"
     id="path1514"
     style="fill:#ffffff" />
</svg>
