<?xml version="1.0" encoding="UTF-8" standalone="no"?>
<svg
   viewBox="0 0 32 32"
   version="1.1"
   id="svg4"
   sodipodi:docname="link.svg"
   inkscape:version="1.2 (dc2aedaf03, 2022-05-15)"
   xmlns:inkscape="http://www.inkscape.org/namespaces/inkscape"
   xmlns:sodipodi="http://sodipodi.sourceforge.net/DTD/sodipodi-0.dtd"
   xmlns="http://www.w3.org/2000/svg"
   xmlns:svg="http://www.w3.org/2000/svg">
  <defs
     id="defs8" />
  <sodipodi:namedview
     id="namedview6"
     pagecolor="#ffffff"
     bordercolor="#000000"
     borderopacity="0.25"
     inkscape:showpageshadow="2"
     inkscape:pageopacity="0.0"
     inkscape:pagecheckerboard="0"
     inkscape:deskcolor="#d1d1d1"
     showgrid="false"
     inkscape:zoom="26.15625"
     inkscape:cx="16.019116"
     inkscape:cy="16.019116"
     inkscape:window-width="1920"
     inkscape:window-height="1015"
     inkscape:window-x="-8"
     inkscape:window-y="-8"
     inkscape:window-maximized="1"
     inkscape:current-layer="svg4" />
  <path
     d="m23 2c-.7 0-1.5.5-2 1l-4 4 2 2 4-4 4 4-10 10-2-2-2 2 2 2c.5.5 1.3 1 2 1s1.5-.5 2-1l10-10c.5-.5 1-1.3 1-2s-.5-1.5-1-2l-4-4c-.5-.5-1.3-1-2-1zm-8 8c-.7 0-1.5.5-2 1l-10 10c-.5.5-1 1.3-1 2s.5 1.5 1 2l4 4c.5.5 1.3 1 2 1s1.5-.5 2-1l4-4-2-2-4 4-4-4 10-10 2 2 2-2-2-2c-.5-.5-1.3-1-2-1z"
     id="path2"
     style="fill:#ffffff" />
</svg>
