<?xml version="1.0" encoding="UTF-8" standalone="no"?>
<svg
   viewBox="0 0 32 32"
   version="1.1"
   id="svg260"
   sodipodi:docname="optimize.svg"
   inkscape:version="1.2 (dc2aedaf03, 2022-05-15)"
   xmlns:inkscape="http://www.inkscape.org/namespaces/inkscape"
   xmlns:sodipodi="http://sodipodi.sourceforge.net/DTD/sodipodi-0.dtd"
   xmlns="http://www.w3.org/2000/svg"
   xmlns:svg="http://www.w3.org/2000/svg">
  <defs
     id="defs264" />
  <sodipodi:namedview
     id="namedview262"
     pagecolor="#ffffff"
     bordercolor="#000000"
     borderopacity="0.25"
     inkscape:showpageshadow="2"
     inkscape:pageopacity="0.0"
     inkscape:pagecheckerboard="0"
     inkscape:deskcolor="#d1d1d1"
     showgrid="false"
     inkscape:zoom="26.15625"
     inkscape:cx="16.019116"
     inkscape:cy="16.019116"
     inkscape:window-width="1920"
     inkscape:window-height="1015"
     inkscape:window-x="-8"
     inkscape:window-y="-8"
     inkscape:window-maximized="1"
     inkscape:current-layer="svg260" />
  <path
     d="m16 2-7 4 4 7 7-4zm4 7v3h8v-8h-8zm3 3-4 7 7 4 4-7zm-7.8-7.2 2 3.5-3.5 2-2-3.5zm6.8 1.2h4v4h-4zm-20 4v20h20v-8h-6v-6h-6v-6zm2 2h4v4h-4zm19.8 2.8 3.5 2-2 3.5-3.5-2zm-19.8 3.2h4v4h-4zm6 0h4v4h-4zm-6 6h4v4h-4zm6 0h4v4h-4zm6 0h4v4h-4z"
     id="path258"
     style="fill:#ffffff" />
</svg>
