<?xml version="1.0" encoding="UTF-8" standalone="no"?>
<svg
   viewBox="0 0 32 32"
   version="1.1"
   id="svg635"
   sodipodi:docname="plugin.svg"
   inkscape:version="1.2 (dc2aedaf03, 2022-05-15)"
   xmlns:inkscape="http://www.inkscape.org/namespaces/inkscape"
   xmlns:sodipodi="http://sodipodi.sourceforge.net/DTD/sodipodi-0.dtd"
   xmlns="http://www.w3.org/2000/svg"
   xmlns:svg="http://www.w3.org/2000/svg">
  <defs
     id="defs639" />
  <sodipodi:namedview
     id="namedview637"
     pagecolor="#ffffff"
     bordercolor="#000000"
     borderopacity="0.25"
     inkscape:showpageshadow="2"
     inkscape:pageopacity="0.0"
     inkscape:pagecheckerboard="0"
     inkscape:deskcolor="#d1d1d1"
     showgrid="false"
     inkscape:zoom="26.15625"
     inkscape:cx="16.019116"
     inkscape:cy="16.019116"
     inkscape:window-width="1920"
     inkscape:window-height="1015"
     inkscape:window-x="-8"
     inkscape:window-y="-8"
     inkscape:window-maximized="1"
     inkscape:current-layer="svg635" />
  <path
     d="m20 2c-2 0-4 1-4 3.1 0 .9 1 1.9 2 2.9s0 2-2 2h-6v6c0 2-1 3-2 2s-2-2-3-2c-2 0-3 2-3 4s1 4 3.1 4c.9 0 1.9-1 2.9-2s2 0 2 2v6h6c2 0 3-1 2-2s-2-2-2-2.9c0-2.1 2-3.1 4-3.1s4 1 4 3c0 1-1 2-2 3s0 2 2 2h6v-20h-6c-2 0-3-1-2-2s2-2 2-3c0-2-2-3-4-3z"
     id="path633"
     style="fill:#ffffff" />
</svg>
