<?xml version="1.0" encoding="UTF-8" standalone="no"?>
<svg
   viewBox="0 0 32 32"
   version="1.1"
   id="svg137"
   sodipodi:docname="rename.svg"
   inkscape:version="1.2 (dc2aedaf03, 2022-05-15)"
   xmlns:inkscape="http://www.inkscape.org/namespaces/inkscape"
   xmlns:sodipodi="http://sodipodi.sourceforge.net/DTD/sodipodi-0.dtd"
   xmlns="http://www.w3.org/2000/svg"
   xmlns:svg="http://www.w3.org/2000/svg">
  <defs
     id="defs141" />
  <sodipodi:namedview
     id="namedview139"
     pagecolor="#ffffff"
     bordercolor="#000000"
     borderopacity="0.25"
     inkscape:showpageshadow="2"
     inkscape:pageopacity="0.0"
     inkscape:pagecheckerboard="0"
     inkscape:deskcolor="#d1d1d1"
     showgrid="false"
     inkscape:zoom="26.15625"
     inkscape:cx="16.019116"
     inkscape:cy="16.019116"
     inkscape:window-width="1920"
     inkscape:window-height="1015"
     inkscape:window-x="-8"
     inkscape:window-y="-8"
     inkscape:window-maximized="1"
     inkscape:current-layer="svg137" />
  <path
     fill="#0dcaf0"
     d="m17.24,23.97l-15,0c-0.69,0 -1.25,-0.51 -1.25,-1.15l0,-13.78c0,-0.63 0.56,-1.15 1.25,-1.15l15,0c0.69,0 1.25,0.51 1.25,1.15s-0.56,1.15 -1.25,1.15l-13.75,0l0,11.49l13.75,0c0.69,0 1.25,0.51 1.25,1.15s-0.56,1.15 -1.25,1.15zm-10,-9.19c-0.69,0 -1.25,0.51 -1.25,1.15s0.56,1.15 1.25,1.15l7.5,0c0.69,0 1.25,-0.51 1.25,-1.15s-0.56,-1.15 -1.25,-1.15l-7.5,0zm19.99,13.78l-3.75,0l0,-25.27l3.75,0c0.69,0 1.25,-0.51 1.25,-1.15s-0.56,-1.15 -1.25,-1.15l-10,0c-0.69,0 -1.25,0.51 -1.25,1.15s0.56,1.15 1.25,1.15l3.75,0l0,25.27l-3.75,0c-0.69,0 -1.25,0.51 -1.25,1.15s0.56,1.15 1.25,1.15l10,0c0.69,0 1.25,-0.51 1.25,-1.15s-0.56,-1.15 -1.25,-1.15zm2.5,-20.68l-2.5,0c-0.69,0 -1.25,0.51 -1.25,1.15s0.56,1.15 1.25,1.15l1.25,0l0,11.49l-1.25,0c-0.69,0 -1.25,0.51 -1.25,1.15s0.56,1.15 1.25,1.15l2.5,0c0.69,0 1.25,-0.51 1.25,-1.15l0,-13.78c0,-0.63 -0.56,-1.15 -1.25,-1.15z"
     id="path135"
     style="fill:#ffffff" />
</svg>
