<?xml version="1.0" encoding="UTF-8" standalone="no"?>
<svg
   viewBox="0 0 32 32"
   version="1.1"
   id="svg1137"
   sodipodi:docname="replication.svg"
   inkscape:version="1.2 (dc2aedaf03, 2022-05-15)"
   xmlns:inkscape="http://www.inkscape.org/namespaces/inkscape"
   xmlns:sodipodi="http://sodipodi.sourceforge.net/DTD/sodipodi-0.dtd"
   xmlns="http://www.w3.org/2000/svg"
   xmlns:svg="http://www.w3.org/2000/svg">
  <defs
     id="defs1141" />
  <sodipodi:namedview
     id="namedview1139"
     pagecolor="#ffffff"
     bordercolor="#000000"
     borderopacity="0.25"
     inkscape:showpageshadow="2"
     inkscape:pageopacity="0.0"
     inkscape:pagecheckerboard="0"
     inkscape:deskcolor="#d1d1d1"
     showgrid="false"
     inkscape:zoom="26.15625"
     inkscape:cx="16.019116"
     inkscape:cy="16.019116"
     inkscape:window-width="1920"
     inkscape:window-height="1015"
     inkscape:window-x="-8"
     inkscape:window-y="-8"
     inkscape:window-maximized="1"
     inkscape:current-layer="svg1137" />
  <path
     d="m2 12v8h10v-8zm18 0v8h10v-8zm-16 2h6v4h-6zm18 0h6v4h-6z"
     id="path1133"
     style="fill:#ffffff" />
  <path
     d="m4 2v8h8l-2.4-2.4c1.6-1 3.5-1.6 5.4-1.6 3.1 0 7.1 1.5 9 4h4c-2.3-4.9-7.6-8-13-8-3 0-5.9 1-8.3 2.7zm0 20c2.3 4.9 7.6 8 13 8 3 0 5.9-1 8.3-2.7l2.7 2.7v-8h-8l2.4 2.4c-1.6 1-3.5 1.6-5.4 1.6-3.1 0-7.1-1.5-9-4z"
     id="path1135"
     style="fill:#ffffff" />
</svg>
