<?xml version="1.0" encoding="UTF-8" standalone="no"?>
<svg
   viewBox="0 0 32 32"
   version="1.1"
   id="svg1387"
   sodipodi:docname="routine.svg"
   inkscape:version="1.2 (dc2aedaf03, 2022-05-15)"
   xmlns:inkscape="http://www.inkscape.org/namespaces/inkscape"
   xmlns:sodipodi="http://sodipodi.sourceforge.net/DTD/sodipodi-0.dtd"
   xmlns="http://www.w3.org/2000/svg"
   xmlns:svg="http://www.w3.org/2000/svg">
  <defs
     id="defs1391" />
  <sodipodi:namedview
     id="namedview1389"
     pagecolor="#ffffff"
     bordercolor="#000000"
     borderopacity="0.25"
     inkscape:showpageshadow="2"
     inkscape:pageopacity="0.0"
     inkscape:pagecheckerboard="0"
     inkscape:deskcolor="#d1d1d1"
     showgrid="false"
     inkscape:zoom="26.15625"
     inkscape:cx="16.019116"
     inkscape:cy="16.019116"
     inkscape:window-width="1920"
     inkscape:window-height="1015"
     inkscape:window-x="-8"
     inkscape:window-y="-8"
     inkscape:window-maximized="1"
     inkscape:current-layer="svg1387" />
  <path
     d="m21 4-.4 2.2-1.7.7-1.9-1.3-1.4 1.4 1.3 1.9-.7 1.7-2.2.4v2l2.2.4.7 1.7-1.3 1.9 1.4 1.4 1.9-1.3 1.7.7.4 2.2h2l.4-2.2 1.7-.7 1.9 1.3 1.5-1.3-1.4-2 .7-1.7 2.2-.4v-2l-2.2-.4-.7-1.7 1.3-1.9-1.4-1.4-1.9 1.3-1.7-.7-.4-2.2zm1 5c1.7 0 3 1.3 3 3s-1.3 3-3 3-3-1.3-3-3 1.3-3 3-3zm-13 3-.4 2.2-1.7.7-1.9-1.3-1.4 1.4 1.3 1.9-.7 1.7-2.2.4v2l2.2.4.7 1.7-1.3 1.9 1.4 1.4 1.9-1.3 1.7.7.4 2.2h2l.4-2.2 1.7-.7 1.9 1.3 1.4-1.4-1.3-1.9.7-1.7 2.2-.4v-2l-2.2-.4-.7-1.7 1.3-1.9-1.4-1.4-1.9 1.3-1.7-.7-.4-2.2zm1 5c1.7 0 3 1.3 3 3s-1.3 3-3 3-3-1.3-3-3 1.3-3 3-3z"
     id="path1385"
     style="fill:#ffffff" />
</svg>
