<?xml version="1.0" encoding="UTF-8" standalone="no"?>
<svg
   viewBox="0 0 32 32"
   version="1.1"
   id="svg1514"
   sodipodi:docname="routine-plus.svg"
   inkscape:version="1.2 (dc2aedaf03, 2022-05-15)"
   xmlns:inkscape="http://www.inkscape.org/namespaces/inkscape"
   xmlns:sodipodi="http://sodipodi.sourceforge.net/DTD/sodipodi-0.dtd"
   xmlns="http://www.w3.org/2000/svg"
   xmlns:svg="http://www.w3.org/2000/svg">
  <defs
     id="defs1518" />
  <sodipodi:namedview
     id="namedview1516"
     pagecolor="#ffffff"
     bordercolor="#000000"
     borderopacity="0.25"
     inkscape:showpageshadow="2"
     inkscape:pageopacity="0.0"
     inkscape:pagecheckerboard="0"
     inkscape:deskcolor="#d1d1d1"
     showgrid="false"
     inkscape:zoom="26.15625"
     inkscape:cx="16.019116"
     inkscape:cy="16.019116"
     inkscape:window-width="1920"
     inkscape:window-height="1015"
     inkscape:window-x="-8"
     inkscape:window-y="-8"
     inkscape:window-maximized="1"
     inkscape:current-layer="svg1514" />
  <path
     d="m21 4-.4 2.2-1.7.7-1.9-1.3-1.4 1.4 1.3 1.9-.7 1.7-2.2.4v2l2.2.4.7 1.7-1.3 1.9 1.4 1.4 1.9-1.3 1 .5c1.5-1 3.3-1.6 5.1-1.6 1.1 0 2.1.2 3.1.6l-1-1.5.7-1.7 2.2-.4v-2l-2.2-.4-.7-1.7 1.3-1.9-1.4-1.4-1.9 1.3-1.7-.7-.4-2.2zm1 5c1.7 0 3 1.3 3 3s-1.3 3-3 3-3-1.3-3-3 1.3-3 3-3zm-13 3-.4 2.2-1.7.7-1.9-1.3-1.4 1.4 1.3 1.9-.7 1.7-2.2.4v2l2.2.4.7 1.7-1.3 1.9 1.4 1.4 1.9-1.3 1.7.7.4 2.2h2l.4-2.2 1.7-.7 1.9 1.3 1-1v-.9l-.9-1.4.7-1.7 1.1-.2c.3-.7.6-1.2 1.1-1.8v-.4l-2.2-.4-.7-1.7 1.3-1.9-1.4-1.4-1.9 1.3-1.7-.7-.4-2.2zm1 5c1.7 0 3 1.3 3 3s-1.3 3-3 3-3-1.3-3-3 1.3-3 3-3z"
     id="path1510"
     style="fill:#ffffff" />
  <path
     d="m25 18c-3.9 0-7 3.1-7 7s3.1 7 7 7 7-3.1 7-7-3.1-7-7-7zm5 6v2h-4v4h-2v-4h-4v-2h4v-4h2v4z"
     id="path1512"
     style="fill:#ffffff" />
</svg>
