<?xml version="1.0" encoding="UTF-8" standalone="no"?>
<svg
   viewBox="0 0 32 32"
   version="1.1"
   id="svg1641"
   sodipodi:docname="row-plus.svg"
   inkscape:version="1.2 (dc2aedaf03, 2022-05-15)"
   xmlns:inkscape="http://www.inkscape.org/namespaces/inkscape"
   xmlns:sodipodi="http://sodipodi.sourceforge.net/DTD/sodipodi-0.dtd"
   xmlns="http://www.w3.org/2000/svg"
   xmlns:svg="http://www.w3.org/2000/svg">
  <defs
     id="defs1645" />
  <sodipodi:namedview
     id="namedview1643"
     pagecolor="#ffffff"
     bordercolor="#000000"
     borderopacity="0.25"
     inkscape:showpageshadow="2"
     inkscape:pageopacity="0.0"
     inkscape:pagecheckerboard="0"
     inkscape:deskcolor="#d1d1d1"
     showgrid="false"
     inkscape:zoom="26.15625"
     inkscape:cx="16.019116"
     inkscape:cy="16.019116"
     inkscape:window-width="1920"
     inkscape:window-height="1015"
     inkscape:window-x="-8"
     inkscape:window-y="-8"
     inkscape:window-maximized="1"
     inkscape:current-layer="svg1641" />
  <path
     d="m6 4v8h20v-8zm2 2h4v4h-4zm6 0h4v4h-4zm6 0h4v4h-4zm-18 8v4h17.4c1.6-1.3 3.5-2 5.6-2 1.8 0 3.5.5 5 1.5v-3.5zm4 6v8h10.5c-.2-.6-.3-1.3-.4-2h-2.1v-4h2.5c.2-.7.6-1.4 1-2zm2 2h4v4h-4z"
     id="path1637"
     style="fill:#ffffff" />
  <path
     d="m25 18c-3.9 0-7 3.1-7 7s3.1 7 7 7 7-3.1 7-7-3.1-7-7-7zm5 6v2h-4v4h-2v-4h-4v-2h4v-4h2v4z"
     id="path1639"
     style="fill:#ffffff" />
</svg>
