<?xml version="1.0" encoding="UTF-8" standalone="no"?>
<svg
   viewBox="0 0 32 32"
   version="1.1"
   id="svg1766"
   sodipodi:docname="save.svg"
   inkscape:version="1.2 (dc2aedaf03, 2022-05-15)"
   xmlns:inkscape="http://www.inkscape.org/namespaces/inkscape"
   xmlns:sodipodi="http://sodipodi.sourceforge.net/DTD/sodipodi-0.dtd"
   xmlns="http://www.w3.org/2000/svg"
   xmlns:svg="http://www.w3.org/2000/svg">
  <defs
     id="defs1770" />
  <sodipodi:namedview
     id="namedview1768"
     pagecolor="#ffffff"
     bordercolor="#000000"
     borderopacity="0.25"
     inkscape:showpageshadow="2"
     inkscape:pageopacity="0.0"
     inkscape:pagecheckerboard="0"
     inkscape:deskcolor="#d1d1d1"
     showgrid="false"
     inkscape:zoom="26.15625"
     inkscape:cx="16.019116"
     inkscape:cy="16.019116"
     inkscape:window-width="1920"
     inkscape:window-height="1015"
     inkscape:window-x="-8"
     inkscape:window-y="-8"
     inkscape:window-maximized="1"
     inkscape:current-layer="svg1766" />
  <path
     d="m2 2v28h4v-12c0-1.1.9-2 2-2h16c1.1 0 2 .9 2 2v12h4v-24l-4-4zm6 2h16v7c0 .6-.4 1-1 1h-14c-.6 0-1-.4-1-1zm10 1v6h4v-6zm-10 13v2h16v-2zm0 4v2h16v-2zm0 4v2h16v-2z"
     id="path1764"
     style="fill:#ffffff" />
</svg>
