<?xml version="1.0" encoding="UTF-8" standalone="no"?>
<svg
   viewBox="0 0 32 32"
   version="1.1"
   id="svg264"
   sodipodi:docname="search-replace.svg"
   inkscape:version="1.2 (dc2aedaf03, 2022-05-15)"
   xmlns:inkscape="http://www.inkscape.org/namespaces/inkscape"
   xmlns:sodipodi="http://sodipodi.sourceforge.net/DTD/sodipodi-0.dtd"
   xmlns="http://www.w3.org/2000/svg"
   xmlns:svg="http://www.w3.org/2000/svg">
  <defs
     id="defs268" />
  <sodipodi:namedview
     id="namedview266"
     pagecolor="#ffffff"
     bordercolor="#000000"
     borderopacity="0.25"
     inkscape:showpageshadow="2"
     inkscape:pageopacity="0.0"
     inkscape:pagecheckerboard="0"
     inkscape:deskcolor="#d1d1d1"
     showgrid="false"
     inkscape:zoom="26.15625"
     inkscape:cx="16.019116"
     inkscape:cy="16.019116"
     inkscape:window-width="1920"
     inkscape:window-height="1015"
     inkscape:window-x="-8"
     inkscape:window-y="-8"
     inkscape:window-maximized="1"
     inkscape:current-layer="svg264" />
  <path
     d="m12 2c-5.5 0-10 4.5-10 10 0 2.1.7 4.1 1.8 5.7l1.5-3.8c-.2-.6-.3-1.2-.3-1.9 0-3.9 3.1-7 7-7s7 3.1 7 7c0 3-1.9 5.5-4.5 6.5l1.1 2.8c.8-.3 1.7-.7 2.4-1.3l9 10 3-3-10-9c1.3-1.7 2-3.8 2-6 0-5.5-4.5-10-10-10z"
     id="path260"
     style="fill:#ffffff" />
  <path
     d="m7 16-5 14h4l.5-2h5l.5 2h4l-5-14zm2 4 1.5 4h-3z"
     id="path262"
     style="fill:#ffffff" />
</svg>
