<?xml version="1.0" encoding="UTF-8" standalone="no"?>
<svg
   viewBox="0 0 32 32"
   version="1.1"
   id="svg389"
   sodipodi:docname="server.svg"
   inkscape:version="1.2 (dc2aedaf03, 2022-05-15)"
   xmlns:inkscape="http://www.inkscape.org/namespaces/inkscape"
   xmlns:sodipodi="http://sodipodi.sourceforge.net/DTD/sodipodi-0.dtd"
   xmlns="http://www.w3.org/2000/svg"
   xmlns:svg="http://www.w3.org/2000/svg">
  <defs
     id="defs393" />
  <sodipodi:namedview
     id="namedview391"
     pagecolor="#ffffff"
     bordercolor="#000000"
     borderopacity="0.25"
     inkscape:showpageshadow="2"
     inkscape:pageopacity="0.0"
     inkscape:pagecheckerboard="0"
     inkscape:deskcolor="#d1d1d1"
     showgrid="false"
     inkscape:zoom="26.15625"
     inkscape:cx="16.019116"
     inkscape:cy="16.019116"
     inkscape:window-width="1920"
     inkscape:window-height="1015"
     inkscape:window-x="-8"
     inkscape:window-y="-8"
     inkscape:window-maximized="1"
     inkscape:current-layer="svg389" />
  <path
     d="m2 2v8h28v-8zm2 2h2v4h-2zm4 0h2v4h-2zm4 0h2v4h-2zm4 0h2v4h-2zm11 0c.6 0 1 .4 1 1s-.4 1-1 1-1-.4-1-1 .4-1 1-1zm-25 8v8h28v-8zm2 2h2v4h-2zm4 0h2v4h-2zm4 0h2v4h-2zm4 0h2v4h-2zm11 0c.6 0 1 .4 1 1s-.4 1-1 1-1-.4-1-1 .4-1 1-1zm-25 8v8h28v-8zm2 2h2v4h-2zm4 0h2v4h-2zm4 0h2v4h-2zm4 0h2v4h-2zm11 0c.6 0 1 .4 1 1s-.4 1-1 1-1-.4-1-1 .4-1 1-1z"
     id="path387"
     style="fill:#ffffff" />
</svg>
