<?xml version="1.0" encoding="UTF-8" standalone="no"?>
<svg
   viewBox="0 0 32 32"
   version="1.1"
   id="svg1014"
   sodipodi:docname="sql.svg"
   inkscape:version="1.2 (dc2aedaf03, 2022-05-15)"
   xmlns:inkscape="http://www.inkscape.org/namespaces/inkscape"
   xmlns:sodipodi="http://sodipodi.sourceforge.net/DTD/sodipodi-0.dtd"
   xmlns="http://www.w3.org/2000/svg"
   xmlns:svg="http://www.w3.org/2000/svg">
  <defs
     id="defs1018" />
  <sodipodi:namedview
     id="namedview1016"
     pagecolor="#ffffff"
     bordercolor="#000000"
     borderopacity="0.25"
     inkscape:showpageshadow="2"
     inkscape:pageopacity="0.0"
     inkscape:pagecheckerboard="0"
     inkscape:deskcolor="#d1d1d1"
     showgrid="false"
     inkscape:zoom="26.15625"
     inkscape:cx="16.019116"
     inkscape:cy="16.019116"
     inkscape:window-width="1920"
     inkscape:window-height="1015"
     inkscape:window-x="-8"
     inkscape:window-y="-8"
     inkscape:window-maximized="1"
     inkscape:current-layer="svg1014" />
  <path
     d="m9 2c-1.7 0-3 1.3-3 3v21h-3c-.5 0-1 .5-1 1 0 1.4 1.3 3 3 3h18c1.7 0 3-1.3 3-3v-21h3c.5 0 1-.5 1-1 0-1.4-1.3-3-3-3zm0 2h15.2c-.1.3-.2.7-.2 1v22c0 .6-.4 1-1 1s-1-.5-1-1-.5-1-1-1h-13v-21c0-.6.4-1 1-1zm1 2v2h10v-2zm0 4v2h12v-2zm0 4v2h8v-2zm0 4v2h10v-2zm0 4v2h12v-2z"
     id="path1012"
     style="fill:#ffffff" />
</svg>
