<?xml version="1.0" encoding="UTF-8" standalone="no"?>
<svg
   viewBox="0 0 32 32"
   version="1.1"
   id="svg1514"
   sodipodi:docname="table-browse.svg"
   inkscape:version="1.2 (dc2aedaf03, 2022-05-15)"
   xmlns:inkscape="http://www.inkscape.org/namespaces/inkscape"
   xmlns:sodipodi="http://sodipodi.sourceforge.net/DTD/sodipodi-0.dtd"
   xmlns="http://www.w3.org/2000/svg"
   xmlns:svg="http://www.w3.org/2000/svg">
  <defs
     id="defs1518" />
  <sodipodi:namedview
     id="namedview1516"
     pagecolor="#ffffff"
     bordercolor="#000000"
     borderopacity="0.25"
     inkscape:showpageshadow="2"
     inkscape:pageopacity="0.0"
     inkscape:pagecheckerboard="0"
     inkscape:deskcolor="#d1d1d1"
     showgrid="false"
     inkscape:zoom="26.15625"
     inkscape:cx="16.019116"
     inkscape:cy="16.019116"
     inkscape:window-width="1920"
     inkscape:window-height="1015"
     inkscape:window-x="-8"
     inkscape:window-y="-8"
     inkscape:window-maximized="1"
     inkscape:current-layer="svg1514" />
  <path
     d="m2 2v28h28v-28zm8 2h8v4h-8zm10 0h8v4h-8zm-16 6h4v4h-4zm6 0h8v4h-8zm10 0h8v4h-8zm-16 6h4v6h-4zm6 0h8v6h-8zm10 0h8v6h-8zm-8 2v2h4v-2zm10 0v2h4v-2zm-18 6h4v4h-4zm6 0h8v4h-8zm10 0h8v4h-8z"
     id="path1512"
     style="fill:#ffffff" />
</svg>
