<?xml version="1.0" encoding="UTF-8" standalone="no"?>
<svg
   viewBox="0 0 32 32"
   version="1.1"
   id="svg6"
   sodipodi:docname="table-plus.svg"
   inkscape:version="1.2 (dc2aedaf03, 2022-05-15)"
   xmlns:inkscape="http://www.inkscape.org/namespaces/inkscape"
   xmlns:sodipodi="http://sodipodi.sourceforge.net/DTD/sodipodi-0.dtd"
   xmlns="http://www.w3.org/2000/svg"
   xmlns:svg="http://www.w3.org/2000/svg">
  <defs
     id="defs10" />
  <sodipodi:namedview
     id="namedview8"
     pagecolor="#ffffff"
     bordercolor="#000000"
     borderopacity="0.25"
     inkscape:showpageshadow="2"
     inkscape:pageopacity="0.0"
     inkscape:pagecheckerboard="0"
     inkscape:deskcolor="#d1d1d1"
     showgrid="false"
     inkscape:zoom="26.15625"
     inkscape:cx="16.019116"
     inkscape:cy="16.019116"
     inkscape:window-width="1920"
     inkscape:window-height="1015"
     inkscape:window-x="-8"
     inkscape:window-y="-8"
     inkscape:window-maximized="1"
     inkscape:current-layer="svg6" />
  <path
     d="m2 2v28h15.4c-.4-.6-.8-1.3-1-2h-12.4v-20h24v8.4c.7.2 1.4.6 2 1v-15.4zm4 8v4h4v-4zm6 0v4h6v-4zm8 0v4h6v-4zm-14 6v4h4v-4zm6 0v4h5.4c.2-.3.4-.5.6-.8v-3.2zm8 0v1.4c1.1-.7 2.4-1.2 3.7-1.4zm-14 6v4h4v-4zm6 0v4h4c0-.3-.1-.7-.1-1 0-1 .2-2 .5-3z"
     id="path2"
     style="fill:#ffffff" />
  <path
     d="m25 18c-3.9 0-7 3.1-7 7s3.1 7 7 7 7-3.1 7-7-3.1-7-7-7zm5 6v2h-4v4h-2v-4h-4v-2h4v-4h2v4z"
     id="path4"
     style="fill:#ffffff" />
</svg>
