<?xml version="1.0" encoding="UTF-8" standalone="no"?>
<svg
   viewBox="0 0 32 32"
   version="1.1"
   id="svg1020"
   sodipodi:docname="users.svg"
   inkscape:version="1.2 (dc2aedaf03, 2022-05-15)"
   xmlns:inkscape="http://www.inkscape.org/namespaces/inkscape"
   xmlns:sodipodi="http://sodipodi.sourceforge.net/DTD/sodipodi-0.dtd"
   xmlns="http://www.w3.org/2000/svg"
   xmlns:svg="http://www.w3.org/2000/svg">
  <defs
     id="defs1024" />
  <sodipodi:namedview
     id="namedview1022"
     pagecolor="#ffffff"
     bordercolor="#000000"
     borderopacity="0.25"
     inkscape:showpageshadow="2"
     inkscape:pageopacity="0.0"
     inkscape:pagecheckerboard="0"
     inkscape:deskcolor="#d1d1d1"
     showgrid="false"
     inkscape:zoom="26.15625"
     inkscape:cx="16.019116"
     inkscape:cy="16.019116"
     inkscape:window-width="1920"
     inkscape:window-height="1015"
     inkscape:window-x="-8"
     inkscape:window-y="-8"
     inkscape:window-maximized="1"
     inkscape:current-layer="svg1020" />
  <path
     d="m20 8c-1.7 0-5 .8-5 5s.3 5.7 1.7 6.7c.8.8 0 1.6 0 1.6s-6.7 2.3-6.7 6.7h20c0-4.4-6.7-6.7-6.7-6.7s-.8-.8 0-1.6c1.4-1 1.7-2.5 1.7-6.7s-3.3-5-5-5z"
     id="path1016"
     style="fill:#ffffff" />
  <path
     d="m12 4c-1.7 0-5 .8-5 5s.3 5.7 1.7 6.7c.8.8 0 1.6 0 1.6s-6.7 2.3-6.7 6.7h7c1.3-1.8 3.2-3.1 5-3.8-1.2-2.5-1-5.1-1-7.2 0-4 1.2-5.2 3.5-6.4-1-2.1-3.2-2.6-4.5-2.6z"
     id="path1018"
     style="fill:#ffffff" />
</svg>
