<?xml version="1.0" encoding="UTF-8" standalone="no"?>
<svg
   viewBox="0 0 32 32"
   version="1.1"
   id="svg641"
   sodipodi:docname="user-minus.svg"
   inkscape:version="1.2 (dc2aedaf03, 2022-05-15)"
   xmlns:inkscape="http://www.inkscape.org/namespaces/inkscape"
   xmlns:sodipodi="http://sodipodi.sourceforge.net/DTD/sodipodi-0.dtd"
   xmlns="http://www.w3.org/2000/svg"
   xmlns:svg="http://www.w3.org/2000/svg">
  <defs
     id="defs645" />
  <sodipodi:namedview
     id="namedview643"
     pagecolor="#ffffff"
     bordercolor="#000000"
     borderopacity="0.25"
     inkscape:showpageshadow="2"
     inkscape:pageopacity="0.0"
     inkscape:pagecheckerboard="0"
     inkscape:deskcolor="#d1d1d1"
     showgrid="false"
     inkscape:zoom="26.15625"
     inkscape:cx="16.019116"
     inkscape:cy="16.019116"
     inkscape:window-width="1920"
     inkscape:window-height="1015"
     inkscape:window-x="-8"
     inkscape:window-y="-8"
     inkscape:window-maximized="1"
     inkscape:current-layer="svg641" />
  <path
     d="m16 2c-3 0-7 1-7 7s0 7 2 9c1 1 0 3 0 3s-9 3-9 9h15.5c-1-1.5-1.5-3.2-1.5-5 0-3.9 2.5-7.4 6.2-8.6.8-1.4.8-3 .8-7.4 0-6-4-7-7-7z"
     id="path637"
     style="fill:#ffffff" />
  <path
     d="m25 18c-3.9 0-7 3.1-7 7s3.1 7 7 7 7-3.1 7-7-3.1-7-7-7zm5 6v2h-10v-2z"
     id="path639"
     style="fill:#ffffff" />
</svg>
