<?xml version="1.0" encoding="UTF-8" standalone="no"?>
<svg
   viewBox="0 0 32 32"
   version="1.1"
   id="svg137"
   sodipodi:docname="visibility-hidden.svg"
   inkscape:version="1.2 (dc2aedaf03, 2022-05-15)"
   xmlns:inkscape="http://www.inkscape.org/namespaces/inkscape"
   xmlns:sodipodi="http://sodipodi.sourceforge.net/DTD/sodipodi-0.dtd"
   xmlns="http://www.w3.org/2000/svg"
   xmlns:svg="http://www.w3.org/2000/svg">
  <defs
     id="defs141" />
  <sodipodi:namedview
     id="namedview139"
     pagecolor="#ffffff"
     bordercolor="#000000"
     borderopacity="0.25"
     inkscape:showpageshadow="2"
     inkscape:pageopacity="0.0"
     inkscape:pagecheckerboard="0"
     inkscape:deskcolor="#d1d1d1"
     showgrid="false"
     inkscape:zoom="26.15625"
     inkscape:cx="16.019116"
     inkscape:cy="16.019116"
     inkscape:window-width="1920"
     inkscape:window-height="1015"
     inkscape:window-x="-8"
     inkscape:window-y="-8"
     inkscape:window-maximized="1"
     inkscape:current-layer="svg137" />
  <path
     d="m16 8c-1.3 0-2.5.1-3.7.3l1.7 1.7c1.1 0 2 .9 2 2l5.1 5.1c.6-.9.9-2 .9-3.1 0-1.2-.3-2.3-1-3.3 3.4 1 6 2.9 7 5.3-.6 1.6-2 3.1-3.9 4.1l1.4 1.4c2.3-1.4 3.9-3.3 4.5-5.5-1.4-4.7-7.2-8-14-8zm-9.5 2.5c-2.3 1.4-3.9 3.3-4.5 5.5 1.4 4.7 7.2 8 14 8 1.3 0 2.5-.1 3.7-.3l-1.8-1.8c-.6.1-1.3.1-1.9.1-5.6 0-10.6-2.5-12-6 .6-1.6 2-3.1 3.9-4.1zm3.5 3.5c0 3.3 2.7 6 6 6z"
     id="path133"
     style="fill:#ffffff" />
  <path
     d="m4 2-2 2 26 26 2-2z"
     id="path135"
     style="fill:#ffffff" />
</svg>
